<svg width="1920" height="1080">
<svg>
<g id="unit_0_0"><svg>
<g id="unit_0_0_0"><svg>
<g id="unit_0_0_0_0"><svg>
<defs><filter id="unit_0_0_0_0_0-blur">
                        <feGaussianBlur result="blurOut" in="offOut" stdDeviation="10" />
                   </filter></defs>
<path d="M427.91 475.44L427.91 475.44Q429 475.44 430.47 475.22Q431.94 475 432.69 474.72L432.69 474.72L432.69 479.03Q431.91 479.38 430.27 479.70Q428.63 480.03 426.94 480.03L426.94 480.03Q416.88 480.03 416.88 469.44L416.88 469.44L416.88 449.47L412.03 449.47L412.03 446.78L416.94 444.53L419.19 437.22L422.53 437.22L422.53 445.09L432.44 445.09L432.44 449.47L422.53 449.47L422.53 469.28Q422.53 472.25 423.95 473.84Q425.38 475.44 427.91 475.44Z" fill="#66CC33" filter="unit_0_0_0_0_0-blur" /><path d="M427.91 475.44L427.91 475.44Q429 475.44 430.47 475.22Q431.94 475 432.69 474.72L432.69 474.72L432.69 479.03Q431.91 479.38 430.27 479.70Q428.63 480.03 426.94 480.03L426.94 480.03Q416.88 480.03 416.88 469.44L416.88 469.44L416.88 449.47L412.03 449.47L412.03 446.78L416.94 444.53L419.19 437.22L422.53 437.22L422.53 445.09L432.44 445.09L432.44 449.47L422.53 449.47L422.53 469.28Q422.53 472.25 423.95 473.84Q425.38 475.44 427.91 475.44Z" fill="#333333"/></svg><svg>
<defs><filter id="unit_0_0_0_0_1-blur">
                        <feGaussianBlur result="blurOut" in="offOut" stdDeviation="10" />
                   </filter></defs>
<path d="M468.47 479.41L462.91 479.41L462.91 457.47Q462.91 453.28 461.05 451.23Q459.19 449.19 455.22 449.19L455.22 449.19Q450 449.19 447.58 452.09Q445.16 455 445.16 461.69L445.16 461.69L445.16 479.41L439.53 479.41L439.53 430.78L445.16 430.78L445.16 445.03Q445.16 447.84 444.84 449.84L444.84 449.84L445.22 449.84Q446.75 447.34 449.56 445.94Q452.38 444.53 455.91 444.53L455.91 444.53Q462.16 444.53 465.31 447.52Q468.47 450.50 468.47 457.06L468.47 457.06L468.47 479.41Z" fill="#66CC33" filter="unit_0_0_0_0_1-blur" /><path d="M468.47 479.41L462.91 479.41L462.91 457.47Q462.91 453.28 461.05 451.23Q459.19 449.19 455.22 449.19L455.22 449.19Q450 449.19 447.58 452.09Q445.16 455 445.16 461.69L445.16 461.69L445.16 479.41L439.53 479.41L439.53 430.78L445.16 430.78L445.16 445.03Q445.16 447.84 444.84 449.84L444.84 449.84L445.22 449.84Q446.75 447.34 449.56 445.94Q452.38 444.53 455.91 444.53L455.91 444.53Q462.16 444.53 465.31 447.52Q468.47 450.50 468.47 457.06L468.47 457.06L468.47 479.41Z" fill="#333333"/></svg><svg>
<defs><filter id="unit_0_0_0_0_2-blur">
                        <feGaussianBlur result="blurOut" in="offOut" stdDeviation="10" />
                   </filter></defs>
<path d="M484.72 445.09L484.72 479.41L479.09 479.41L479.09 445.09L484.72 445.09ZM478.66 435.81L478.66 435.81Q478.66 433.94 479.61 433.09Q480.56 432.25 481.97 432.25L481.97 432.25Q483.28 432.25 484.27 433.09Q485.25 433.94 485.25 435.81L485.25 435.81Q485.25 437.66 484.27 438.53Q483.28 439.41 481.97 439.41L481.97 439.41Q480.56 439.41 479.61 438.53Q478.66 437.66 478.66 435.81Z" fill="#66CC33" filter="unit_0_0_0_0_2-blur" /><path d="M484.72 445.09L484.72 479.41L479.09 479.41L479.09 445.09L484.72 445.09ZM478.66 435.81L478.66 435.81Q478.66 433.94 479.61 433.09Q480.56 432.25 481.97 432.25L481.97 432.25Q483.28 432.25 484.27 433.09Q485.25 433.94 485.25 435.81L485.25 435.81Q485.25 437.66 484.27 438.53Q483.28 439.41 481.97 439.41L481.97 439.41Q480.56 439.41 479.61 438.53Q478.66 437.66 478.66 435.81Z" fill="#333333"/></svg><svg>
<defs><filter id="unit_0_0_0_0_3-blur">
                        <feGaussianBlur result="blurOut" in="offOut" stdDeviation="10" />
                   </filter></defs>
<path d="M517.94 469.94L517.94 469.94Q517.94 474.75 514.34 477.39Q510.75 480.03 504.25 480.03L504.25 480.03Q497.47 480.03 493.47 477.88L493.47 477.88L493.47 472.75Q499.13 475.50 504.38 475.50L504.38 475.50Q508.63 475.50 510.56 474.13Q512.50 472.75 512.50 470.44L512.50 470.44Q512.50 468.41 510.64 467Q508.78 465.59 504.03 463.78L504.03 463.78Q499.19 461.91 497.22 460.58Q495.25 459.25 494.33 457.59Q493.41 455.94 493.41 453.56L493.41 453.56Q493.41 449.34 496.84 446.91Q500.28 444.47 506.28 444.47L506.28 444.47Q512.13 444.47 517.22 446.78L517.22 446.78L515.31 451.25Q510.09 449.06 505.91 449.06L505.91 449.06Q502.41 449.06 500.59 450.17Q498.78 451.28 498.78 453.22L498.78 453.22Q498.78 455.09 500.34 456.33Q501.91 457.56 507.63 459.75L507.63 459.75Q511.91 461.34 513.95 462.72Q516 464.09 516.97 465.81Q517.94 467.53 517.94 469.94Z" fill="#66CC33" filter="unit_0_0_0_0_3-blur" /><path d="M517.94 469.94L517.94 469.94Q517.94 474.75 514.34 477.39Q510.75 480.03 504.25 480.03L504.25 480.03Q497.47 480.03 493.47 477.88L493.47 477.88L493.47 472.75Q499.13 475.50 504.38 475.50L504.38 475.50Q508.63 475.50 510.56 474.13Q512.50 472.75 512.50 470.44L512.50 470.44Q512.50 468.41 510.64 467Q508.78 465.59 504.03 463.78L504.03 463.78Q499.19 461.91 497.22 460.58Q495.25 459.25 494.33 457.59Q493.41 455.94 493.41 453.56L493.41 453.56Q493.41 449.34 496.84 446.91Q500.28 444.47 506.28 444.47L506.28 444.47Q512.13 444.47 517.22 446.78L517.22 446.78L515.31 451.25Q510.09 449.06 505.91 449.06L505.91 449.06Q502.41 449.06 500.59 450.17Q498.78 451.28 498.78 453.22L498.78 453.22Q498.78 455.09 500.34 456.33Q501.91 457.56 507.63 459.75L507.63 459.75Q511.91 461.34 513.95 462.72Q516 464.09 516.97 465.81Q517.94 467.53 517.94 469.94Z" fill="#333333"/></svg><path d="M 410 410 L 519.8125 410 L 519.8125 478.40625 L 410 478.40625 L 410 410" stroke="#999999" /></g></svg><svg>
<g id="unit_0_0_0_1"><svg>
<defs><filter id="unit_0_0_0_1_0-blur">
                        <feGaussianBlur result="blurOut" in="offOut" stdDeviation="10" />
                   </filter></defs>
<path d="" fill="#66CC33" filter="unit_0_0_0_1_0-blur" /><path d="" fill="#333333"/></svg><path d="M 519.8125 410 L 536.4375 410 L 536.4375 478.40625 L 519.8125 478.40625 L 519.8125 410" stroke="#999999" /></g></svg><svg>
<g id="unit_0_0_0_2"><svg>
<defs><filter id="unit_0_0_0_2_0-blur">
                        <feGaussianBlur result="blurOut" in="offOut" stdDeviation="10" />
                   </filter></defs>
<path d="M548.50 445.09L548.50 479.41L542.88 479.41L542.88 445.09L548.50 445.09ZM542.44 435.81L542.44 435.81Q542.44 433.94 543.39 433.09Q544.34 432.25 545.75 432.25L545.75 432.25Q547.06 432.25 548.05 433.09Q549.03 433.94 549.03 435.81L549.03 435.81Q549.03 437.66 548.05 438.53Q547.06 439.41 545.75 439.41L545.75 439.41Q544.34 439.41 543.39 438.53Q542.44 437.66 542.44 435.81Z" fill="#66CC33" filter="unit_0_0_0_2_0-blur" /><path d="M548.50 445.09L548.50 479.41L542.88 479.41L542.88 445.09L548.50 445.09ZM542.44 435.81L542.44 435.81Q542.44 433.94 543.39 433.09Q544.34 432.25 545.75 432.25L545.75 432.25Q547.06 432.25 548.05 433.09Q549.03 433.94 549.03 435.81L549.03 435.81Q549.03 437.66 548.05 438.53Q547.06 439.41 545.75 439.41L545.75 439.41Q544.34 439.41 543.39 438.53Q542.44 437.66 542.44 435.81Z" fill="#333333"/></svg><svg>
<defs><filter id="unit_0_0_0_2_1-blur">
                        <feGaussianBlur result="blurOut" in="offOut" stdDeviation="10" />
                   </filter></defs>
<path d="M581.72 469.94L581.72 469.94Q581.72 474.75 578.13 477.39Q574.53 480.03 568.03 480.03L568.03 480.03Q561.25 480.03 557.25 477.88L557.25 477.88L557.25 472.75Q562.91 475.50 568.16 475.50L568.16 475.50Q572.41 475.50 574.34 474.13Q576.28 472.75 576.28 470.44L576.28 470.44Q576.28 468.41 574.42 467Q572.56 465.59 567.81 463.78L567.81 463.78Q562.97 461.91 561 460.58Q559.03 459.25 558.11 457.59Q557.19 455.94 557.19 453.56L557.19 453.56Q557.19 449.34 560.63 446.91Q564.06 444.47 570.06 444.47L570.06 444.47Q575.91 444.47 581 446.78L581 446.78L579.09 451.25Q573.88 449.06 569.69 449.06L569.69 449.06Q566.19 449.06 564.38 450.17Q562.56 451.28 562.56 453.22L562.56 453.22Q562.56 455.09 564.13 456.33Q565.69 457.56 571.41 459.75L571.41 459.75Q575.69 461.34 577.73 462.72Q579.78 464.09 580.75 465.81Q581.72 467.53 581.72 469.94Z" fill="#66CC33" filter="unit_0_0_0_2_1-blur" /><path d="M581.72 469.94L581.72 469.94Q581.72 474.75 578.13 477.39Q574.53 480.03 568.03 480.03L568.03 480.03Q561.25 480.03 557.25 477.88L557.25 477.88L557.25 472.75Q562.91 475.50 568.16 475.50L568.16 475.50Q572.41 475.50 574.34 474.13Q576.28 472.75 576.28 470.44L576.28 470.44Q576.28 468.41 574.42 467Q572.56 465.59 567.81 463.78L567.81 463.78Q562.97 461.91 561 460.58Q559.03 459.25 558.11 457.59Q557.19 455.94 557.19 453.56L557.19 453.56Q557.19 449.34 560.63 446.91Q564.06 444.47 570.06 444.47L570.06 444.47Q575.91 444.47 581 446.78L581 446.78L579.09 451.25Q573.88 449.06 569.69 449.06L569.69 449.06Q566.19 449.06 564.38 450.17Q562.56 451.28 562.56 453.22L562.56 453.22Q562.56 455.09 564.13 456.33Q565.69 457.56 571.41 459.75L571.41 459.75Q575.69 461.34 577.73 462.72Q579.78 464.09 580.75 465.81Q581.72 467.53 581.72 469.94Z" fill="#333333"/></svg><path d="M 536.4375 410 L 583.59375 410 L 583.59375 478.40625 L 536.4375 478.40625 L 536.4375 410" stroke="#999999" /></g></svg><svg>
<g id="unit_0_0_0_3"><svg>
<defs><filter id="unit_0_0_0_3_0-blur">
                        <feGaussianBlur result="blurOut" in="offOut" stdDeviation="10" />
                   </filter></defs>
<path d="" fill="#66CC33" filter="unit_0_0_0_3_0-blur" /><path d="" fill="#333333"/></svg><path d="M 583.59375 410 L 600.21875 410 L 600.21875 478.40625 L 583.59375 478.40625 L 583.59375 410" stroke="#999999" /></g></svg><svg>
<g id="unit_0_0_0_4"><svg>
<defs><filter id="unit_0_0_0_4_0-blur">
                        <feGaussianBlur result="blurOut" in="offOut" stdDeviation="10" />
                   </filter></defs>
<path d="M631.94 479.41L627.84 479.41L626.75 474.53L626.50 474.53Q623.94 477.75 621.39 478.89Q618.84 480.03 614.97 480.03L614.97 480.03Q609.91 480.03 607.03 477.38Q604.16 474.72 604.16 469.88L604.16 469.88Q604.16 459.44 620.63 458.94L620.63 458.94L626.44 458.72L626.44 456.69Q626.44 452.78 624.75 450.92Q623.06 449.06 619.34 449.06L619.34 449.06Q616.63 449.06 614.20 449.88Q611.78 450.69 609.66 451.69L609.66 451.69L607.94 447.47Q610.53 446.09 613.59 445.31Q616.66 444.53 619.66 444.53L619.66 444.53Q625.88 444.53 628.91 447.28Q631.94 450.03 631.94 456.03L631.94 456.03L631.94 479.41ZM616.25 475.50L616.25 475.50Q620.97 475.50 623.67 472.95Q626.38 470.41 626.38 465.72L626.38 465.72L626.38 462.63L621.31 462.84Q615.41 463.06 612.70 464.72Q610 466.38 610 469.94L610 469.94Q610 472.63 611.64 474.06Q613.28 475.50 616.25 475.50Z" fill="#66CC33" filter="unit_0_0_0_4_0-blur" /><path d="M631.94 479.41L627.84 479.41L626.75 474.53L626.50 474.53Q623.94 477.75 621.39 478.89Q618.84 480.03 614.97 480.03L614.97 480.03Q609.91 480.03 607.03 477.38Q604.16 474.72 604.16 469.88L604.16 469.88Q604.16 459.44 620.63 458.94L620.63 458.94L626.44 458.72L626.44 456.69Q626.44 452.78 624.75 450.92Q623.06 449.06 619.34 449.06L619.34 449.06Q616.63 449.06 614.20 449.88Q611.78 450.69 609.66 451.69L609.66 451.69L607.94 447.47Q610.53 446.09 613.59 445.31Q616.66 444.53 619.66 444.53L619.66 444.53Q625.88 444.53 628.91 447.28Q631.94 450.03 631.94 456.03L631.94 456.03L631.94 479.41ZM616.25 475.50L616.25 475.50Q620.97 475.50 623.67 472.95Q626.38 470.41 626.38 465.72L626.38 465.72L626.38 462.63L621.31 462.84Q615.41 463.06 612.70 464.72Q610 466.38 610 469.94L610 469.94Q610 472.63 611.64 474.06Q613.28 475.50 616.25 475.50Z" fill="#333333"/></svg><path d="M 600.21875 410 L 636.125 410 L 636.125 478.40625 L 600.21875 478.40625 L 600.21875 410" stroke="#999999" /></g></svg><svg>
<g id="unit_0_0_0_5"><svg>
<defs><filter id="unit_0_0_0_5_0-blur">
                        <feGaussianBlur result="blurOut" in="offOut" stdDeviation="10" />
                   </filter></defs>
<path d="" fill="#66CC33" filter="unit_0_0_0_5_0-blur" /><path d="" fill="#333333"/></svg><path d="M 636.125 410 L 652.75 410 L 652.75 478.40625 L 636.125 478.40625 L 636.125 410" stroke="#999999" /></g></svg><svg>
<g id="unit_0_0_0_6"><svg>
<defs><filter id="unit_0_0_0_6_0-blur">
                        <feGaussianBlur result="blurOut" in="offOut" stdDeviation="10" />
                   </filter></defs>
<path d="M664.81 430.78L664.81 479.41L659.19 479.41L659.19 430.78L664.81 430.78Z" fill="#66CC33" filter="unit_0_0_0_6_0-blur" /><path d="M664.81 430.78L664.81 479.41L659.19 479.41L659.19 430.78L664.81 430.78Z" fill="#333333"/></svg><svg>
<defs><filter id="unit_0_0_0_6_1-blur">
                        <feGaussianBlur result="blurOut" in="offOut" stdDeviation="10" />
                   </filter></defs>
<path d="M705.50 462.19L705.50 462.19Q705.50 470.59 701.25 475.31Q697 480.03 689.50 480.03L689.50 480.03Q684.84 480.03 681.25 477.86Q677.66 475.69 675.72 471.63Q673.78 467.56 673.78 462.19L673.78 462.19Q673.78 453.81 677.97 449.14Q682.16 444.47 689.72 444.47L689.72 444.47Q696.97 444.47 701.23 449.23Q705.50 454 705.50 462.19ZM679.59 462.19L679.59 462.19Q679.59 468.66 682.14 472.02Q684.69 475.38 689.66 475.38L689.66 475.38Q694.56 475.38 697.13 472.02Q699.69 468.66 699.69 462.19L699.69 462.19Q699.69 455.72 697.11 452.45Q694.53 449.19 689.56 449.19L689.56 449.19Q679.59 449.19 679.59 462.19Z" fill="#66CC33" filter="unit_0_0_0_6_1-blur" /><path d="M705.50 462.19L705.50 462.19Q705.50 470.59 701.25 475.31Q697 480.03 689.50 480.03L689.50 480.03Q684.84 480.03 681.25 477.86Q677.66 475.69 675.72 471.63Q673.78 467.56 673.78 462.19L673.78 462.19Q673.78 453.81 677.97 449.14Q682.16 444.47 689.72 444.47L689.72 444.47Q696.97 444.47 701.23 449.23Q705.50 454 705.50 462.19ZM679.59 462.19L679.59 462.19Q679.59 468.66 682.14 472.02Q684.69 475.38 689.66 475.38L689.66 475.38Q694.56 475.38 697.13 472.02Q699.69 468.66 699.69 462.19L699.69 462.19Q699.69 455.72 697.11 452.45Q694.53 449.19 689.56 449.19L689.56 449.19Q679.59 449.19 679.59 462.19Z" fill="#333333"/></svg><svg>
<defs><filter id="unit_0_0_0_6_2-blur">
                        <feGaussianBlur result="blurOut" in="offOut" stdDeviation="10" />
                   </filter></defs>
<path d="M743.34 479.41L737.78 479.41L737.78 457.47Q737.78 453.28 735.92 451.23Q734.06 449.19 730.09 449.19L730.09 449.19Q724.81 449.19 722.42 452.11Q720.03 455.03 720.03 461.63L720.03 461.63L720.03 479.41L714.41 479.41L714.41 445.09L718.94 445.09L719.78 449.78L720.09 449.78Q721.69 447.25 724.56 445.86Q727.44 444.47 730.91 444.47L730.91 444.47Q737.22 444.47 740.28 447.53Q743.34 450.59 743.34 457.06L743.34 457.06L743.34 479.41Z" fill="#66CC33" filter="unit_0_0_0_6_2-blur" /><path d="M743.34 479.41L737.78 479.41L737.78 457.47Q737.78 453.28 735.92 451.23Q734.06 449.19 730.09 449.19L730.09 449.19Q724.81 449.19 722.42 452.11Q720.03 455.03 720.03 461.63L720.03 461.63L720.03 479.41L714.41 479.41L714.41 445.09L718.94 445.09L719.78 449.78L720.09 449.78Q721.69 447.25 724.56 445.86Q727.44 444.47 730.91 444.47L730.91 444.47Q737.22 444.47 740.28 447.53Q743.34 450.59 743.34 457.06L743.34 457.06L743.34 479.41Z" fill="#333333"/></svg><svg>
<defs><filter id="unit_0_0_0_6_3-blur">
                        <feGaussianBlur result="blurOut" in="offOut" stdDeviation="10" />
                   </filter></defs>
<path d="M767.03 475.44L767.03 475.44Q772.22 475.44 774.58 472.64Q776.94 469.84 776.94 463.66L776.94 463.66L776.94 462.31Q776.94 455.44 774.56 452.31Q772.19 449.19 766.91 449.19L766.91 449.19Q762.59 449.19 760.23 452.61Q757.88 456.03 757.88 462.38L757.88 462.38Q757.88 468.75 760.17 472.09Q762.47 475.44 767.03 475.44ZM776.88 480.44L776.88 479.09L777.06 474.88L776.81 474.88Q773.34 480.03 766.19 480.03L766.19 480.03Q759.53 480.03 755.80 475.39Q752.06 470.75 752.06 462.31L752.06 462.31Q752.06 454.03 755.83 449.25Q759.59 444.47 766.13 444.47L766.13 444.47Q773.09 444.47 776.88 449.66L776.88 449.66L777.22 449.66L777.97 445.09L782.44 445.09L782.44 479.97Q782.44 487.34 778.70 491.06Q774.97 494.78 767.09 494.78L767.09 494.78Q759.59 494.78 754.75 492.59L754.75 492.59L754.75 487.41Q759.75 490.09 767.41 490.09L767.41 490.09Q771.78 490.09 774.33 487.53Q776.88 484.97 776.88 480.44L776.88 480.44Z" fill="#66CC33" filter="unit_0_0_0_6_3-blur" /><path d="M767.03 475.44L767.03 475.44Q772.22 475.44 774.58 472.64Q776.94 469.84 776.94 463.66L776.94 463.66L776.94 462.31Q776.94 455.44 774.56 452.31Q772.19 449.19 766.91 449.19L766.91 449.19Q762.59 449.19 760.23 452.61Q757.88 456.03 757.88 462.38L757.88 462.38Q757.88 468.75 760.17 472.09Q762.47 475.44 767.03 475.44ZM776.88 480.44L776.88 479.09L777.06 474.88L776.81 474.88Q773.34 480.03 766.19 480.03L766.19 480.03Q759.53 480.03 755.80 475.39Q752.06 470.75 752.06 462.31L752.06 462.31Q752.06 454.03 755.83 449.25Q759.59 444.47 766.13 444.47L766.13 444.47Q773.09 444.47 776.88 449.66L776.88 449.66L777.22 449.66L777.97 445.09L782.44 445.09L782.44 479.97Q782.44 487.34 778.70 491.06Q774.97 494.78 767.09 494.78L767.09 494.78Q759.59 494.78 754.75 492.59L754.75 492.59L754.75 487.41Q759.75 490.09 767.41 490.09L767.41 490.09Q771.78 490.09 774.33 487.53Q776.88 484.97 776.88 480.44L776.88 480.44Z" fill="#333333"/></svg><path d="M 652.75 410 L 786.90625 410 L 786.90625 478.40625 L 652.75 478.40625 L 652.75 410" stroke="#999999" /></g></svg><svg>
<g id="unit_0_0_0_7"><svg>
<defs><filter id="unit_0_0_0_7_0-blur">
                        <feGaussianBlur result="blurOut" in="offOut" stdDeviation="10" />
                   </filter></defs>
<path d="" fill="#66CC33" filter="unit_0_0_0_7_0-blur" /><path d="" fill="#333333"/></svg><path d="M 786.90625 410 L 803.53125 410 L 803.53125 478.40625 L 786.90625 478.40625 L 786.90625 410" stroke="#999999" /></g></svg><svg>
<g id="unit_0_0_0_8"><svg>
<defs><filter id="unit_0_0_0_8_0-blur">
                        <feGaussianBlur result="blurOut" in="offOut" stdDeviation="10" />
                   </filter></defs>
<path d="M832.31 469.94L832.31 469.94Q832.31 474.75 828.72 477.39Q825.13 480.03 818.63 480.03L818.63 480.03Q811.84 480.03 807.84 477.88L807.84 477.88L807.84 472.75Q813.50 475.50 818.75 475.50L818.75 475.50Q823 475.50 824.94 474.13Q826.88 472.75 826.88 470.44L826.88 470.44Q826.88 468.41 825.02 467Q823.16 465.59 818.41 463.78L818.41 463.78Q813.56 461.91 811.59 460.58Q809.63 459.25 808.70 457.59Q807.78 455.94 807.78 453.56L807.78 453.56Q807.78 449.34 811.22 446.91Q814.66 444.47 820.66 444.47L820.66 444.47Q826.50 444.47 831.59 446.78L831.59 446.78L829.69 451.25Q824.47 449.06 820.28 449.06L820.28 449.06Q816.78 449.06 814.97 450.17Q813.16 451.28 813.16 453.22L813.16 453.22Q813.16 455.09 814.72 456.33Q816.28 457.56 822 459.75L822 459.75Q826.28 461.34 828.33 462.72Q830.38 464.09 831.34 465.81Q832.31 467.53 832.31 469.94Z" fill="#66CC33" filter="unit_0_0_0_8_0-blur" /><path d="M832.31 469.94L832.31 469.94Q832.31 474.75 828.72 477.39Q825.13 480.03 818.63 480.03L818.63 480.03Q811.84 480.03 807.84 477.88L807.84 477.88L807.84 472.75Q813.50 475.50 818.75 475.50L818.75 475.50Q823 475.50 824.94 474.13Q826.88 472.75 826.88 470.44L826.88 470.44Q826.88 468.41 825.02 467Q823.16 465.59 818.41 463.78L818.41 463.78Q813.56 461.91 811.59 460.58Q809.63 459.25 808.70 457.59Q807.78 455.94 807.78 453.56L807.78 453.56Q807.78 449.34 811.22 446.91Q814.66 444.47 820.66 444.47L820.66 444.47Q826.50 444.47 831.59 446.78L831.59 446.78L829.69 451.25Q824.47 449.06 820.28 449.06L820.28 449.06Q816.78 449.06 814.97 450.17Q813.16 451.28 813.16 453.22L813.16 453.22Q813.16 455.09 814.72 456.33Q816.28 457.56 822 459.75L822 459.75Q826.28 461.34 828.33 462.72Q830.38 464.09 831.34 465.81Q832.31 467.53 832.31 469.94Z" fill="#333333"/></svg><svg>
<defs><filter id="unit_0_0_0_8_1-blur">
                        <feGaussianBlur result="blurOut" in="offOut" stdDeviation="10" />
                   </filter></defs>
<path d="M852.09 475.44L852.09 475.44Q853.19 475.44 854.66 475.22Q856.13 475 856.88 474.72L856.88 474.72L856.88 479.03Q856.09 479.38 854.45 479.70Q852.81 480.03 851.13 480.03L851.13 480.03Q841.06 480.03 841.06 469.44L841.06 469.44L841.06 449.47L836.22 449.47L836.22 446.78L841.13 444.53L843.38 437.22L846.72 437.22L846.72 445.09L856.63 445.09L856.63 449.47L846.72 449.47L846.72 469.28Q846.72 472.25 848.14 473.84Q849.56 475.44 852.09 475.44Z" fill="#66CC33" filter="unit_0_0_0_8_1-blur" /><path d="M852.09 475.44L852.09 475.44Q853.19 475.44 854.66 475.22Q856.13 475 856.88 474.72L856.88 474.72L856.88 479.03Q856.09 479.38 854.45 479.70Q852.81 480.03 851.13 480.03L851.13 480.03Q841.06 480.03 841.06 469.44L841.06 469.44L841.06 449.47L836.22 449.47L836.22 446.78L841.13 444.53L843.38 437.22L846.72 437.22L846.72 445.09L856.63 445.09L856.63 449.47L846.72 449.47L846.72 469.28Q846.72 472.25 848.14 473.84Q849.56 475.44 852.09 475.44Z" fill="#333333"/></svg><svg>
<defs><filter id="unit_0_0_0_8_2-blur">
                        <feGaussianBlur result="blurOut" in="offOut" stdDeviation="10" />
                   </filter></defs>
<path d="M879.72 444.47L879.72 444.47Q882 444.47 883.75 444.84L883.75 444.84L883.06 450.03Q881.16 449.59 879.34 449.59L879.34 449.59Q876.63 449.59 874.30 451.09Q871.97 452.59 870.66 455.23Q869.34 457.88 869.34 461.09L869.34 461.09L869.34 479.41L863.72 479.41L863.72 445.09L868.34 445.09L868.97 451.38L869.22 451.38Q871.19 447.97 873.88 446.22Q876.56 444.47 879.72 444.47Z" fill="#66CC33" filter="unit_0_0_0_8_2-blur" /><path d="M879.72 444.47L879.72 444.47Q882 444.47 883.75 444.84L883.75 444.84L883.06 450.03Q881.16 449.59 879.34 449.59L879.34 449.59Q876.63 449.59 874.30 451.09Q871.97 452.59 870.66 455.23Q869.34 457.88 869.34 461.09L869.34 461.09L869.34 479.41L863.72 479.41L863.72 445.09L868.34 445.09L868.97 451.38L869.22 451.38Q871.19 447.97 873.88 446.22Q876.56 444.47 879.72 444.47Z" fill="#333333"/></svg><svg>
<defs><filter id="unit_0_0_0_8_3-blur">
                        <feGaussianBlur result="blurOut" in="offOut" stdDeviation="10" />
                   </filter></defs>
<path d="M895.78 445.09L895.78 479.41L890.16 479.41L890.16 445.09L895.78 445.09ZM889.72 435.81L889.72 435.81Q889.72 433.94 890.67 433.09Q891.63 432.25 893.03 432.25L893.03 432.25Q894.34 432.25 895.33 433.09Q896.31 433.94 896.31 435.81L896.31 435.81Q896.31 437.66 895.33 438.53Q894.34 439.41 893.03 439.41L893.03 439.41Q891.63 439.41 890.67 438.53Q889.72 437.66 889.72 435.81Z" fill="#66CC33" filter="unit_0_0_0_8_3-blur" /><path d="M895.78 445.09L895.78 479.41L890.16 479.41L890.16 445.09L895.78 445.09ZM889.72 435.81L889.72 435.81Q889.72 433.94 890.67 433.09Q891.63 432.25 893.03 432.25L893.03 432.25Q894.34 432.25 895.33 433.09Q896.31 433.94 896.31 435.81L896.31 435.81Q896.31 437.66 895.33 438.53Q894.34 439.41 893.03 439.41L893.03 439.41Q891.63 439.41 890.67 438.53Q889.72 437.66 889.72 435.81Z" fill="#333333"/></svg><svg>
<defs><filter id="unit_0_0_0_8_4-blur">
                        <feGaussianBlur result="blurOut" in="offOut" stdDeviation="10" />
                   </filter></defs>
<path d="M935.59 479.41L930.03 479.41L930.03 457.47Q930.03 453.28 928.17 451.23Q926.31 449.19 922.34 449.19L922.34 449.19Q917.06 449.19 914.67 452.11Q912.28 455.03 912.28 461.63L912.28 461.63L912.28 479.41L906.66 479.41L906.66 445.09L911.19 445.09L912.03 449.78L912.34 449.78Q913.94 447.25 916.81 445.86Q919.69 444.47 923.16 444.47L923.16 444.47Q929.47 444.47 932.53 447.53Q935.59 450.59 935.59 457.06L935.59 457.06L935.59 479.41Z" fill="#66CC33" filter="unit_0_0_0_8_4-blur" /><path d="M935.59 479.41L930.03 479.41L930.03 457.47Q930.03 453.28 928.17 451.23Q926.31 449.19 922.34 449.19L922.34 449.19Q917.06 449.19 914.67 452.11Q912.28 455.03 912.28 461.63L912.28 461.63L912.28 479.41L906.66 479.41L906.66 445.09L911.19 445.09L912.03 449.78L912.34 449.78Q913.94 447.25 916.81 445.86Q919.69 444.47 923.16 444.47L923.16 444.47Q929.47 444.47 932.53 447.53Q935.59 450.59 935.59 457.06L935.59 457.06L935.59 479.41Z" fill="#333333"/></svg><svg>
<defs><filter id="unit_0_0_0_8_5-blur">
                        <feGaussianBlur result="blurOut" in="offOut" stdDeviation="10" />
                   </filter></defs>
<path d="M959.28 475.44L959.28 475.44Q964.47 475.44 966.83 472.64Q969.19 469.84 969.19 463.66L969.19 463.66L969.19 462.31Q969.19 455.44 966.81 452.31Q964.44 449.19 959.16 449.19L959.16 449.19Q954.84 449.19 952.48 452.61Q950.13 456.03 950.13 462.38L950.13 462.38Q950.13 468.75 952.42 472.09Q954.72 475.44 959.28 475.44ZM969.13 480.44L969.13 479.09L969.31 474.88L969.06 474.88Q965.59 480.03 958.44 480.03L958.44 480.03Q951.78 480.03 948.05 475.39Q944.31 470.75 944.31 462.31L944.31 462.31Q944.31 454.03 948.08 449.25Q951.84 444.47 958.38 444.47L958.38 444.47Q965.34 444.47 969.13 449.66L969.13 449.66L969.47 449.66L970.22 445.09L974.69 445.09L974.69 479.97Q974.69 487.34 970.95 491.06Q967.22 494.78 959.34 494.78L959.34 494.78Q951.84 494.78 947 492.59L947 492.59L947 487.41Q952 490.09 959.66 490.09L959.66 490.09Q964.03 490.09 966.58 487.53Q969.13 484.97 969.13 480.44L969.13 480.44Z" fill="#66CC33" filter="unit_0_0_0_8_5-blur" /><path d="M959.28 475.44L959.28 475.44Q964.47 475.44 966.83 472.64Q969.19 469.84 969.19 463.66L969.19 463.66L969.19 462.31Q969.19 455.44 966.81 452.31Q964.44 449.19 959.16 449.19L959.16 449.19Q954.84 449.19 952.48 452.61Q950.13 456.03 950.13 462.38L950.13 462.38Q950.13 468.75 952.42 472.09Q954.72 475.44 959.28 475.44ZM969.13 480.44L969.13 479.09L969.31 474.88L969.06 474.88Q965.59 480.03 958.44 480.03L958.44 480.03Q951.78 480.03 948.05 475.39Q944.31 470.75 944.31 462.31L944.31 462.31Q944.31 454.03 948.08 449.25Q951.84 444.47 958.38 444.47L958.38 444.47Q965.34 444.47 969.13 449.66L969.13 449.66L969.47 449.66L970.22 445.09L974.69 445.09L974.69 479.97Q974.69 487.34 970.95 491.06Q967.22 494.78 959.34 494.78L959.34 494.78Q951.84 494.78 947 492.59L947 492.59L947 487.41Q952 490.09 959.66 490.09L959.66 490.09Q964.03 490.09 966.58 487.53Q969.13 484.97 969.13 480.44L969.13 480.44Z" fill="#333333"/></svg><path d="M 803.53125 410 L 979.15625 410 L 979.15625 478.40625 L 803.53125 478.40625 L 803.53125 410" stroke="#999999" /></g></svg><svg>
<g id="unit_0_0_0_9"><svg>
<defs><filter id="unit_0_0_0_9_0-blur">
                        <feGaussianBlur result="blurOut" in="offOut" stdDeviation="10" />
                   </filter></defs>
<path d="" fill="#66CC33" filter="unit_0_0_0_9_0-blur" /><path d="" fill="#333333"/></svg><path d="M 979.15625 410 L 995.78125 410 L 995.78125 478.40625 L 979.15625 478.40625 L 979.15625 410" stroke="#999999" /></g></svg><path d="M 410 410 L 995.78125 410 L 995.78125 478.40625 L 410 478.40625 L 410 410" stroke="#999999" fill-opacity="0.0"/></g></svg><svg>
<g id="unit_0_0_1"><svg>
<g id="unit_0_0_1_0"><svg>
<defs><filter id="unit_0_0_1_0_0-blur">
                        <feGaussianBlur result="blurOut" in="offOut" stdDeviation="10" />
                   </filter></defs>
<path d="M451.06 533.16L444.47 533.16L438.59 513.84Q437.78 511.44 436.22 504.75L436.22 504.75L435.97 504.75Q434.66 510.84 433.66 513.91L433.66 513.91L427.50 533.16L421.13 533.16L411.72 498.84L417.53 498.84Q420.78 511.50 422.48 518.09Q424.19 524.69 424.50 527.41L424.50 527.41L424.75 527.41L425.19 525.47Q426.16 521 427.06 518.19L427.06 518.19L433.16 498.84L439.28 498.84L445.19 518.19Q445.50 519.28 445.86 520.52Q446.22 521.75 446.53 522.95Q446.84 524.16 447.09 525.30Q447.34 526.44 447.47 527.34L447.47 527.34L447.75 527.34Q448.03 524.97 450.03 517.16L450.03 517.16L454.84 498.84L460.59 498.84L451.06 533.16Z" fill="#66CC33" filter="unit_0_0_1_0_0-blur" /><path d="M451.06 533.16L444.47 533.16L438.59 513.84Q437.78 511.44 436.22 504.75L436.22 504.75L435.97 504.75Q434.66 510.84 433.66 513.91L433.66 513.91L427.50 533.16L421.13 533.16L411.72 498.84L417.53 498.84Q420.78 511.50 422.48 518.09Q424.19 524.69 424.50 527.41L424.50 527.41L424.75 527.41L425.19 525.47Q426.16 521 427.06 518.19L427.06 518.19L433.16 498.84L439.28 498.84L445.19 518.19Q445.50 519.28 445.86 520.52Q446.22 521.75 446.53 522.95Q446.84 524.16 447.09 525.30Q447.34 526.44 447.47 527.34L447.47 527.34L447.75 527.34Q448.03 524.97 450.03 517.16L450.03 517.16L454.84 498.84L460.59 498.84L451.06 533.16Z" fill="#333333"/></svg><svg>
<defs><filter id="unit_0_0_1_0_1-blur">
                        <feGaussianBlur result="blurOut" in="offOut" stdDeviation="10" />
                   </filter></defs>
<path d="M472.38 498.84L472.38 533.16L466.75 533.16L466.75 498.84L472.38 498.84ZM466.31 489.56L466.31 489.56Q466.31 487.69 467.27 486.84Q468.22 486 469.63 486L469.63 486Q470.94 486 471.92 486.84Q472.91 487.69 472.91 489.56L472.91 489.56Q472.91 491.41 471.92 492.28Q470.94 493.16 469.63 493.16L469.63 493.16Q468.22 493.16 467.27 492.28Q466.31 491.41 466.31 489.56Z" fill="#66CC33" filter="unit_0_0_1_0_1-blur" /><path d="M472.38 498.84L472.38 533.16L466.75 533.16L466.75 498.84L472.38 498.84ZM466.31 489.56L466.31 489.56Q466.31 487.69 467.27 486.84Q468.22 486 469.63 486L469.63 486Q470.94 486 471.92 486.84Q472.91 487.69 472.91 489.56L472.91 489.56Q472.91 491.41 471.92 492.28Q470.94 493.16 469.63 493.16L469.63 493.16Q468.22 493.16 467.27 492.28Q466.31 491.41 466.31 489.56Z" fill="#333333"/></svg><svg>
<defs><filter id="unit_0_0_1_0_2-blur">
                        <feGaussianBlur result="blurOut" in="offOut" stdDeviation="10" />
                   </filter></defs>
<path d="M494.72 529.19L494.72 529.19Q495.81 529.19 497.28 528.97Q498.75 528.75 499.50 528.47L499.50 528.47L499.50 532.78Q498.72 533.13 497.08 533.45Q495.44 533.78 493.75 533.78L493.75 533.78Q483.69 533.78 483.69 523.19L483.69 523.19L483.69 503.22L478.84 503.22L478.84 500.53L483.75 498.28L486 490.97L489.34 490.97L489.34 498.84L499.25 498.84L499.25 503.22L489.34 503.22L489.34 523.03Q489.34 526 490.77 527.59Q492.19 529.19 494.72 529.19Z" fill="#66CC33" filter="unit_0_0_1_0_2-blur" /><path d="M494.72 529.19L494.72 529.19Q495.81 529.19 497.28 528.97Q498.75 528.75 499.50 528.47L499.50 528.47L499.50 532.78Q498.72 533.13 497.08 533.45Q495.44 533.78 493.75 533.78L493.75 533.78Q483.69 533.78 483.69 523.19L483.69 523.19L483.69 503.22L478.84 503.22L478.84 500.53L483.75 498.28L486 490.97L489.34 490.97L489.34 498.84L499.25 498.84L499.25 503.22L489.34 503.22L489.34 523.03Q489.34 526 490.77 527.59Q492.19 529.19 494.72 529.19Z" fill="#333333"/></svg><svg>
<defs><filter id="unit_0_0_1_0_3-blur">
                        <feGaussianBlur result="blurOut" in="offOut" stdDeviation="10" />
                   </filter></defs>
<path d="M535.28 533.16L529.72 533.16L529.72 511.22Q529.72 507.03 527.86 504.98Q526 502.94 522.03 502.94L522.03 502.94Q516.81 502.94 514.39 505.84Q511.97 508.75 511.97 515.44L511.97 515.44L511.97 533.16L506.34 533.16L506.34 484.53L511.97 484.53L511.97 498.78Q511.97 501.59 511.66 503.59L511.66 503.59L512.03 503.59Q513.56 501.09 516.38 499.69Q519.19 498.28 522.72 498.28L522.72 498.28Q528.97 498.28 532.13 501.27Q535.28 504.25 535.28 510.81L535.28 510.81L535.28 533.16Z" fill="#66CC33" filter="unit_0_0_1_0_3-blur" /><path d="M535.28 533.16L529.72 533.16L529.72 511.22Q529.72 507.03 527.86 504.98Q526 502.94 522.03 502.94L522.03 502.94Q516.81 502.94 514.39 505.84Q511.97 508.75 511.97 515.44L511.97 515.44L511.97 533.16L506.34 533.16L506.34 484.53L511.97 484.53L511.97 498.78Q511.97 501.59 511.66 503.59L511.66 503.59L512.03 503.59Q513.56 501.09 516.38 499.69Q519.19 498.28 522.72 498.28L522.72 498.28Q528.97 498.28 532.13 501.27Q535.28 504.25 535.28 510.81L535.28 510.81L535.28 533.16Z" fill="#333333"/></svg><path d="M 410 463.75 L 539.46875 463.75 L 539.46875 532.15625 L 410 532.15625 L 410 463.75" stroke="#999999" /></g></svg><svg>
<g id="unit_0_0_1_1"><svg>
<defs><filter id="unit_0_0_1_1_0-blur">
                        <feGaussianBlur result="blurOut" in="offOut" stdDeviation="10" />
                   </filter></defs>
<path d="" fill="#66CC33" filter="unit_0_0_1_1_0-blur" /><path d="" fill="#333333"/></svg><path d="M 539.46875 463.75 L 556.09375 463.75 L 556.09375 532.15625 L 539.46875 532.15625 L 539.46875 463.75" stroke="#999999" /></g></svg><svg>
<g id="unit_0_0_1_2"><svg>
<defs><filter id="unit_0_0_1_2_0-blur">
                        <feGaussianBlur result="blurOut" in="offOut" stdDeviation="10" />
                   </filter></defs>
<path d="M587.81 533.16L583.72 533.16L582.63 528.28L582.38 528.28Q579.81 531.50 577.27 532.64Q574.72 533.78 570.84 533.78L570.84 533.78Q565.78 533.78 562.91 531.13Q560.03 528.47 560.03 523.63L560.03 523.63Q560.03 513.19 576.50 512.69L576.50 512.69L582.31 512.47L582.31 510.44Q582.31 506.53 580.63 504.67Q578.94 502.81 575.22 502.81L575.22 502.81Q572.50 502.81 570.08 503.63Q567.66 504.44 565.53 505.44L565.53 505.44L563.81 501.22Q566.41 499.84 569.47 499.06Q572.53 498.28 575.53 498.28L575.53 498.28Q581.75 498.28 584.78 501.03Q587.81 503.78 587.81 509.78L587.81 509.78L587.81 533.16ZM572.13 529.25L572.13 529.25Q576.84 529.25 579.55 526.70Q582.25 524.16 582.25 519.47L582.25 519.47L582.25 516.38L577.19 516.59Q571.28 516.81 568.58 518.47Q565.88 520.13 565.88 523.69L565.88 523.69Q565.88 526.38 567.52 527.81Q569.16 529.25 572.13 529.25Z" fill="#66CC33" filter="unit_0_0_1_2_0-blur" /><path d="M587.81 533.16L583.72 533.16L582.63 528.28L582.38 528.28Q579.81 531.50 577.27 532.64Q574.72 533.78 570.84 533.78L570.84 533.78Q565.78 533.78 562.91 531.13Q560.03 528.47 560.03 523.63L560.03 523.63Q560.03 513.19 576.50 512.69L576.50 512.69L582.31 512.47L582.31 510.44Q582.31 506.53 580.63 504.67Q578.94 502.81 575.22 502.81L575.22 502.81Q572.50 502.81 570.08 503.63Q567.66 504.44 565.53 505.44L565.53 505.44L563.81 501.22Q566.41 499.84 569.47 499.06Q572.53 498.28 575.53 498.28L575.53 498.28Q581.75 498.28 584.78 501.03Q587.81 503.78 587.81 509.78L587.81 509.78L587.81 533.16ZM572.13 529.25L572.13 529.25Q576.84 529.25 579.55 526.70Q582.25 524.16 582.25 519.47L582.25 519.47L582.25 516.38L577.19 516.59Q571.28 516.81 568.58 518.47Q565.88 520.13 565.88 523.69L565.88 523.69Q565.88 526.38 567.52 527.81Q569.16 529.25 572.13 529.25Z" fill="#333333"/></svg><svg>
<defs><filter id="unit_0_0_1_2_1-blur">
                        <feGaussianBlur result="blurOut" in="offOut" stdDeviation="10" />
                   </filter></defs>
<path d="M620.78 523.69L620.78 523.69Q620.78 528.50 617.19 531.14Q613.59 533.78 607.09 533.78L607.09 533.78Q600.31 533.78 596.31 531.63L596.31 531.63L596.31 526.50Q601.97 529.25 607.22 529.25L607.22 529.25Q611.47 529.25 613.41 527.88Q615.34 526.50 615.34 524.19L615.34 524.19Q615.34 522.16 613.48 520.75Q611.63 519.34 606.88 517.53L606.88 517.53Q602.03 515.66 600.06 514.33Q598.09 513 597.17 511.34Q596.25 509.69 596.25 507.31L596.25 507.31Q596.25 503.09 599.69 500.66Q603.13 498.22 609.13 498.22L609.13 498.22Q614.97 498.22 620.06 500.53L620.06 500.53L618.16 505Q612.94 502.81 608.75 502.81L608.75 502.81Q605.25 502.81 603.44 503.92Q601.63 505.03 601.63 506.97L601.63 506.97Q601.63 508.84 603.19 510.08Q604.75 511.31 610.47 513.50L610.47 513.50Q614.75 515.09 616.80 516.47Q618.84 517.84 619.81 519.56Q620.78 521.28 620.78 523.69Z" fill="#66CC33" filter="unit_0_0_1_2_1-blur" /><path d="M620.78 523.69L620.78 523.69Q620.78 528.50 617.19 531.14Q613.59 533.78 607.09 533.78L607.09 533.78Q600.31 533.78 596.31 531.63L596.31 531.63L596.31 526.50Q601.97 529.25 607.22 529.25L607.22 529.25Q611.47 529.25 613.41 527.88Q615.34 526.50 615.34 524.19L615.34 524.19Q615.34 522.16 613.48 520.75Q611.63 519.34 606.88 517.53L606.88 517.53Q602.03 515.66 600.06 514.33Q598.09 513 597.17 511.34Q596.25 509.69 596.25 507.31L596.25 507.31Q596.25 503.09 599.69 500.66Q603.13 498.22 609.13 498.22L609.13 498.22Q614.97 498.22 620.06 500.53L620.06 500.53L618.16 505Q612.94 502.81 608.75 502.81L608.75 502.81Q605.25 502.81 603.44 503.92Q601.63 505.03 601.63 506.97L601.63 506.97Q601.63 508.84 603.19 510.08Q604.75 511.31 610.47 513.50L610.47 513.50Q614.75 515.09 616.80 516.47Q618.84 517.84 619.81 519.56Q620.78 521.28 620.78 523.69Z" fill="#333333"/></svg><svg>
<defs><filter id="unit_0_0_1_2_2-blur">
                        <feGaussianBlur result="blurOut" in="offOut" stdDeviation="10" />
                   </filter></defs>
<path d="M625.06 548.53L625.06 548.53Q622.13 548.53 620.13 547.75L620.13 547.75L620.13 543.22Q622.28 543.84 624.38 543.84L624.38 543.84Q626.81 543.84 627.95 542.52Q629.09 541.19 629.09 538.47L629.09 538.47L629.09 498.84L634.72 498.84L634.72 538.28Q634.72 543.41 632.27 545.97Q629.81 548.53 625.06 548.53ZM628.66 489.56L628.66 489.56Q628.66 487.69 629.61 486.84Q630.56 486 631.97 486L631.97 486Q633.28 486 634.27 486.84Q635.25 487.69 635.25 489.56L635.25 489.56Q635.25 491.41 634.27 492.28Q633.28 493.16 631.97 493.16L631.97 493.16Q630.56 493.16 629.61 492.28Q628.66 491.41 628.66 489.56Z" fill="#66CC33" filter="unit_0_0_1_2_2-blur" /><path d="M625.06 548.53L625.06 548.53Q622.13 548.53 620.13 547.75L620.13 547.75L620.13 543.22Q622.28 543.84 624.38 543.84L624.38 543.84Q626.81 543.84 627.95 542.52Q629.09 541.19 629.09 538.47L629.09 538.47L629.09 498.84L634.72 498.84L634.72 538.28Q634.72 543.41 632.27 545.97Q629.81 548.53 625.06 548.53ZM628.66 489.56L628.66 489.56Q628.66 487.69 629.61 486.84Q630.56 486 631.97 486L631.97 486Q633.28 486 634.27 486.84Q635.25 487.69 635.25 489.56L635.25 489.56Q635.25 491.41 634.27 492.28Q633.28 493.16 631.97 493.16L631.97 493.16Q630.56 493.16 629.61 492.28Q628.66 491.41 628.66 489.56Z" fill="#333333"/></svg><svg>
<defs><filter id="unit_0_0_1_2_3-blur">
                        <feGaussianBlur result="blurOut" in="offOut" stdDeviation="10" />
                   </filter></defs>
<path d="M670.88 533.16L666.78 533.16L665.69 528.28L665.44 528.28Q662.88 531.50 660.33 532.64Q657.78 533.78 653.91 533.78L653.91 533.78Q648.84 533.78 645.97 531.13Q643.09 528.47 643.09 523.63L643.09 523.63Q643.09 513.19 659.56 512.69L659.56 512.69L665.38 512.47L665.38 510.44Q665.38 506.53 663.69 504.67Q662 502.81 658.28 502.81L658.28 502.81Q655.56 502.81 653.14 503.63Q650.72 504.44 648.59 505.44L648.59 505.44L646.88 501.22Q649.47 499.84 652.53 499.06Q655.59 498.28 658.59 498.28L658.59 498.28Q664.81 498.28 667.84 501.03Q670.88 503.78 670.88 509.78L670.88 509.78L670.88 533.16ZM655.19 529.25L655.19 529.25Q659.91 529.25 662.61 526.70Q665.31 524.16 665.31 519.47L665.31 519.47L665.31 516.38L660.25 516.59Q654.34 516.81 651.64 518.47Q648.94 520.13 648.94 523.69L648.94 523.69Q648.94 526.38 650.58 527.81Q652.22 529.25 655.19 529.25Z" fill="#66CC33" filter="unit_0_0_1_2_3-blur" /><path d="M670.88 533.16L666.78 533.16L665.69 528.28L665.44 528.28Q662.88 531.50 660.33 532.64Q657.78 533.78 653.91 533.78L653.91 533.78Q648.84 533.78 645.97 531.13Q643.09 528.47 643.09 523.63L643.09 523.63Q643.09 513.19 659.56 512.69L659.56 512.69L665.38 512.47L665.38 510.44Q665.38 506.53 663.69 504.67Q662 502.81 658.28 502.81L658.28 502.81Q655.56 502.81 653.14 503.63Q650.72 504.44 648.59 505.44L648.59 505.44L646.88 501.22Q649.47 499.84 652.53 499.06Q655.59 498.28 658.59 498.28L658.59 498.28Q664.81 498.28 667.84 501.03Q670.88 503.78 670.88 509.78L670.88 509.78L670.88 533.16ZM655.19 529.25L655.19 529.25Q659.91 529.25 662.61 526.70Q665.31 524.16 665.31 519.47L665.31 519.47L665.31 516.38L660.25 516.59Q654.34 516.81 651.64 518.47Q648.94 520.13 648.94 523.69L648.94 523.69Q648.94 526.38 650.58 527.81Q652.22 529.25 655.19 529.25Z" fill="#333333"/></svg><svg>
<defs><filter id="unit_0_0_1_2_4-blur">
                        <feGaussianBlur result="blurOut" in="offOut" stdDeviation="10" />
                   </filter></defs>
<path d="M703.84 523.69L703.84 523.69Q703.84 528.50 700.25 531.14Q696.66 533.78 690.16 533.78L690.16 533.78Q683.38 533.78 679.38 531.63L679.38 531.63L679.38 526.50Q685.03 529.25 690.28 529.25L690.28 529.25Q694.53 529.25 696.47 527.88Q698.41 526.50 698.41 524.19L698.41 524.19Q698.41 522.16 696.55 520.75Q694.69 519.34 689.94 517.53L689.94 517.53Q685.09 515.66 683.13 514.33Q681.16 513 680.23 511.34Q679.31 509.69 679.31 507.31L679.31 507.31Q679.31 503.09 682.75 500.66Q686.19 498.22 692.19 498.22L692.19 498.22Q698.03 498.22 703.13 500.53L703.13 500.53L701.22 505Q696 502.81 691.81 502.81L691.81 502.81Q688.31 502.81 686.50 503.92Q684.69 505.03 684.69 506.97L684.69 506.97Q684.69 508.84 686.25 510.08Q687.81 511.31 693.53 513.50L693.53 513.50Q697.81 515.09 699.86 516.47Q701.91 517.84 702.88 519.56Q703.84 521.28 703.84 523.69Z" fill="#66CC33" filter="unit_0_0_1_2_4-blur" /><path d="M703.84 523.69L703.84 523.69Q703.84 528.50 700.25 531.14Q696.66 533.78 690.16 533.78L690.16 533.78Q683.38 533.78 679.38 531.63L679.38 531.63L679.38 526.50Q685.03 529.25 690.28 529.25L690.28 529.25Q694.53 529.25 696.47 527.88Q698.41 526.50 698.41 524.19L698.41 524.19Q698.41 522.16 696.55 520.75Q694.69 519.34 689.94 517.53L689.94 517.53Q685.09 515.66 683.13 514.33Q681.16 513 680.23 511.34Q679.31 509.69 679.31 507.31L679.31 507.31Q679.31 503.09 682.75 500.66Q686.19 498.22 692.19 498.22L692.19 498.22Q698.03 498.22 703.13 500.53L703.13 500.53L701.22 505Q696 502.81 691.81 502.81L691.81 502.81Q688.31 502.81 686.50 503.92Q684.69 505.03 684.69 506.97L684.69 506.97Q684.69 508.84 686.25 510.08Q687.81 511.31 693.53 513.50L693.53 513.50Q697.81 515.09 699.86 516.47Q701.91 517.84 702.88 519.56Q703.84 521.28 703.84 523.69Z" fill="#333333"/></svg><svg>
<defs><filter id="unit_0_0_1_2_5-blur">
                        <feGaussianBlur result="blurOut" in="offOut" stdDeviation="10" />
                   </filter></defs>
<path d="M724.31 533.78L724.31 533.78Q717.63 533.78 713.94 529.16Q710.25 524.53 710.25 516.06L710.25 516.06Q710.25 507.66 713.95 502.94Q717.66 498.22 724.38 498.22L724.38 498.22Q731.28 498.22 735 503.28L735 503.28L735.41 503.28Q735.31 502.66 735.16 500.77Q735 498.88 735 498.22L735 498.22L735 484.53L740.63 484.53L740.63 533.16L736.09 533.16L735.25 528.56L735 528.56Q731.41 533.78 724.31 533.78ZM725.22 529.13L725.22 529.13Q730.34 529.13 732.70 526.33Q735.06 523.53 735.06 517.16L735.06 517.16L735.06 516.13Q735.06 508.97 732.67 505.92Q730.28 502.88 725.16 502.88L725.16 502.88Q720.81 502.88 718.44 506.33Q716.06 509.78 716.06 516.19L716.06 516.19Q716.06 522.56 718.42 525.84Q720.78 529.13 725.22 529.13Z" fill="#66CC33" filter="unit_0_0_1_2_5-blur" /><path d="M724.31 533.78L724.31 533.78Q717.63 533.78 713.94 529.16Q710.25 524.53 710.25 516.06L710.25 516.06Q710.25 507.66 713.95 502.94Q717.66 498.22 724.38 498.22L724.38 498.22Q731.28 498.22 735 503.28L735 503.28L735.41 503.28Q735.31 502.66 735.16 500.77Q735 498.88 735 498.22L735 498.22L735 484.53L740.63 484.53L740.63 533.16L736.09 533.16L735.25 528.56L735 528.56Q731.41 533.78 724.31 533.78ZM725.22 529.13L725.22 529.13Q730.34 529.13 732.70 526.33Q735.06 523.53 735.06 517.16L735.06 517.16L735.06 516.13Q735.06 508.97 732.67 505.92Q730.28 502.88 725.16 502.88L725.16 502.88Q720.81 502.88 718.44 506.33Q716.06 509.78 716.06 516.19L716.06 516.19Q716.06 522.56 718.42 525.84Q720.78 529.13 725.22 529.13Z" fill="#333333"/></svg><svg>
<defs><filter id="unit_0_0_1_2_6-blur">
                        <feGaussianBlur result="blurOut" in="offOut" stdDeviation="10" />
                   </filter></defs>
<path d="M757.16 484.53L757.16 533.16L751.53 533.16L751.53 484.53L757.16 484.53Z" fill="#66CC33" filter="unit_0_0_1_2_6-blur" /><path d="M757.16 484.53L757.16 533.16L751.53 533.16L751.53 484.53L757.16 484.53Z" fill="#333333"/></svg><svg>
<defs><filter id="unit_0_0_1_2_7-blur">
                        <feGaussianBlur result="blurOut" in="offOut" stdDeviation="10" />
                   </filter></defs>
<path d="M773.34 515.50L773.59 515.50L775.50 513.06L777.69 510.44L788.66 498.84L795.22 498.84L781.34 513.50L796.19 533.16L789.41 533.16L777.50 517.16L773.59 520.56L773.59 533.16L768.03 533.16L768.03 484.53L773.59 484.53L773.59 509.94L773.34 515.50Z" fill="#66CC33" filter="unit_0_0_1_2_7-blur" /><path d="M773.34 515.50L773.59 515.50L775.50 513.06L777.69 510.44L788.66 498.84L795.22 498.84L781.34 513.50L796.19 533.16L789.41 533.16L777.50 517.16L773.59 520.56L773.59 533.16L768.03 533.16L768.03 484.53L773.59 484.53L773.59 509.94L773.34 515.50Z" fill="#333333"/></svg><svg>
<defs><filter id="unit_0_0_1_2_8-blur">
                        <feGaussianBlur result="blurOut" in="offOut" stdDeviation="10" />
                   </filter></defs>
<path d="M798.19 548.53L798.19 548.53Q795.25 548.53 793.25 547.75L793.25 547.75L793.25 543.22Q795.41 543.84 797.50 543.84L797.50 543.84Q799.94 543.84 801.08 542.52Q802.22 541.19 802.22 538.47L802.22 538.47L802.22 498.84L807.84 498.84L807.84 538.28Q807.84 543.41 805.39 545.97Q802.94 548.53 798.19 548.53ZM801.78 489.56L801.78 489.56Q801.78 487.69 802.73 486.84Q803.69 486 805.09 486L805.09 486Q806.41 486 807.39 486.84Q808.38 487.69 808.38 489.56L808.38 489.56Q808.38 491.41 807.39 492.28Q806.41 493.16 805.09 493.16L805.09 493.16Q803.69 493.16 802.73 492.28Q801.78 491.41 801.78 489.56Z" fill="#66CC33" filter="unit_0_0_1_2_8-blur" /><path d="M798.19 548.53L798.19 548.53Q795.25 548.53 793.25 547.75L793.25 547.75L793.25 543.22Q795.41 543.84 797.50 543.84L797.50 543.84Q799.94 543.84 801.08 542.52Q802.22 541.19 802.22 538.47L802.22 538.47L802.22 498.84L807.84 498.84L807.84 538.28Q807.84 543.41 805.39 545.97Q802.94 548.53 798.19 548.53ZM801.78 489.56L801.78 489.56Q801.78 487.69 802.73 486.84Q803.69 486 805.09 486L805.09 486Q806.41 486 807.39 486.84Q808.38 487.69 808.38 489.56L808.38 489.56Q808.38 491.41 807.39 492.28Q806.41 493.16 805.09 493.16L805.09 493.16Q803.69 493.16 802.73 492.28Q801.78 491.41 801.78 489.56Z" fill="#333333"/></svg><svg>
<defs><filter id="unit_0_0_1_2_9-blur">
                        <feGaussianBlur result="blurOut" in="offOut" stdDeviation="10" />
                   </filter></defs>
<path d="M834.53 498.84L834.53 503.22L825.88 503.22L825.88 533.16L820.25 533.16L820.25 503.22L814.25 503.22L814.25 500.59L820.25 498.66L820.25 496.69Q820.25 490.44 822.98 487.31Q825.72 484.19 831.41 484.19L831.41 484.19Q834.69 484.19 838.06 485.34L838.06 485.34L836.56 489.75Q833.66 488.81 831.47 488.81L831.47 488.81Q828.63 488.81 827.25 490.69Q825.88 492.56 825.88 496.63L825.88 496.63L825.88 498.84L834.53 498.84Z" fill="#66CC33" filter="unit_0_0_1_2_9-blur" /><path d="M834.53 498.84L834.53 503.22L825.88 503.22L825.88 533.16L820.25 533.16L820.25 503.22L814.25 503.22L814.25 500.59L820.25 498.66L820.25 496.69Q820.25 490.44 822.98 487.31Q825.72 484.19 831.41 484.19L831.41 484.19Q834.69 484.19 838.06 485.34L838.06 485.34L836.56 489.75Q833.66 488.81 831.47 488.81L831.47 488.81Q828.63 488.81 827.25 490.69Q825.88 492.56 825.88 496.63L825.88 496.63L825.88 498.84L834.53 498.84Z" fill="#333333"/></svg><svg>
<defs><filter id="unit_0_0_1_2_10-blur">
                        <feGaussianBlur result="blurOut" in="offOut" stdDeviation="10" />
                   </filter></defs>
<path d="M866.03 533.16L861.94 533.16L860.84 528.28L860.59 528.28Q858.03 531.50 855.48 532.64Q852.94 533.78 849.06 533.78L849.06 533.78Q844 533.78 841.13 531.13Q838.25 528.47 838.25 523.63L838.25 523.63Q838.25 513.19 854.72 512.69L854.72 512.69L860.53 512.47L860.53 510.44Q860.53 506.53 858.84 504.67Q857.16 502.81 853.44 502.81L853.44 502.81Q850.72 502.81 848.30 503.63Q845.88 504.44 843.75 505.44L843.75 505.44L842.03 501.22Q844.63 499.84 847.69 499.06Q850.75 498.28 853.75 498.28L853.75 498.28Q859.97 498.28 863 501.03Q866.03 503.78 866.03 509.78L866.03 509.78L866.03 533.16ZM850.34 529.25L850.34 529.25Q855.06 529.25 857.77 526.70Q860.47 524.16 860.47 519.47L860.47 519.47L860.47 516.38L855.41 516.59Q849.50 516.81 846.80 518.47Q844.09 520.13 844.09 523.69L844.09 523.69Q844.09 526.38 845.73 527.81Q847.38 529.25 850.34 529.25Z" fill="#66CC33" filter="unit_0_0_1_2_10-blur" /><path d="M866.03 533.16L861.94 533.16L860.84 528.28L860.59 528.28Q858.03 531.50 855.48 532.64Q852.94 533.78 849.06 533.78L849.06 533.78Q844 533.78 841.13 531.13Q838.25 528.47 838.25 523.63L838.25 523.63Q838.25 513.19 854.72 512.69L854.72 512.69L860.53 512.47L860.53 510.44Q860.53 506.53 858.84 504.67Q857.16 502.81 853.44 502.81L853.44 502.81Q850.72 502.81 848.30 503.63Q845.88 504.44 843.75 505.44L843.75 505.44L842.03 501.22Q844.63 499.84 847.69 499.06Q850.75 498.28 853.75 498.28L853.75 498.28Q859.97 498.28 863 501.03Q866.03 503.78 866.03 509.78L866.03 509.78L866.03 533.16ZM850.34 529.25L850.34 529.25Q855.06 529.25 857.77 526.70Q860.47 524.16 860.47 519.47L860.47 519.47L860.47 516.38L855.41 516.59Q849.50 516.81 846.80 518.47Q844.09 520.13 844.09 523.69L844.09 523.69Q844.09 526.38 845.73 527.81Q847.38 529.25 850.34 529.25Z" fill="#333333"/></svg><svg>
<defs><filter id="unit_0_0_1_2_11-blur">
                        <feGaussianBlur result="blurOut" in="offOut" stdDeviation="10" />
                   </filter></defs>
<path d="M881.97 515.50L882.22 515.50L884.13 513.06L886.31 510.44L897.28 498.84L903.84 498.84L889.97 513.50L904.81 533.16L898.03 533.16L886.13 517.16L882.22 520.56L882.22 533.16L876.66 533.16L876.66 484.53L882.22 484.53L882.22 509.94L881.97 515.50Z" fill="#66CC33" filter="unit_0_0_1_2_11-blur" /><path d="M881.97 515.50L882.22 515.50L884.13 513.06L886.31 510.44L897.28 498.84L903.84 498.84L889.97 513.50L904.81 533.16L898.03 533.16L886.13 517.16L882.22 520.56L882.22 533.16L876.66 533.16L876.66 484.53L882.22 484.53L882.22 509.94L881.97 515.50Z" fill="#333333"/></svg><svg>
<defs><filter id="unit_0_0_1_2_12-blur">
                        <feGaussianBlur result="blurOut" in="offOut" stdDeviation="10" />
                   </filter></defs>
<path d="M916.47 484.53L916.47 533.16L910.84 533.16L910.84 484.53L916.47 484.53Z" fill="#66CC33" filter="unit_0_0_1_2_12-blur" /><path d="M916.47 484.53L916.47 533.16L910.84 533.16L910.84 484.53L916.47 484.53Z" fill="#333333"/></svg><svg>
<defs><filter id="unit_0_0_1_2_13-blur">
                        <feGaussianBlur result="blurOut" in="offOut" stdDeviation="10" />
                   </filter></defs>
<path d="M949.69 523.69L949.69 523.69Q949.69 528.50 946.09 531.14Q942.50 533.78 936 533.78L936 533.78Q929.22 533.78 925.22 531.63L925.22 531.63L925.22 526.50Q930.88 529.25 936.13 529.25L936.13 529.25Q940.38 529.25 942.31 527.88Q944.25 526.50 944.25 524.19L944.25 524.19Q944.25 522.16 942.39 520.75Q940.53 519.34 935.78 517.53L935.78 517.53Q930.94 515.66 928.97 514.33Q927 513 926.08 511.34Q925.16 509.69 925.16 507.31L925.16 507.31Q925.16 503.09 928.59 500.66Q932.03 498.22 938.03 498.22L938.03 498.22Q943.88 498.22 948.97 500.53L948.97 500.53L947.06 505Q941.84 502.81 937.66 502.81L937.66 502.81Q934.16 502.81 932.34 503.92Q930.53 505.03 930.53 506.97L930.53 506.97Q930.53 508.84 932.09 510.08Q933.66 511.31 939.38 513.50L939.38 513.50Q943.66 515.09 945.70 516.47Q947.75 517.84 948.72 519.56Q949.69 521.28 949.69 523.69Z" fill="#66CC33" filter="unit_0_0_1_2_13-blur" /><path d="M949.69 523.69L949.69 523.69Q949.69 528.50 946.09 531.14Q942.50 533.78 936 533.78L936 533.78Q929.22 533.78 925.22 531.63L925.22 531.63L925.22 526.50Q930.88 529.25 936.13 529.25L936.13 529.25Q940.38 529.25 942.31 527.88Q944.25 526.50 944.25 524.19L944.25 524.19Q944.25 522.16 942.39 520.75Q940.53 519.34 935.78 517.53L935.78 517.53Q930.94 515.66 928.97 514.33Q927 513 926.08 511.34Q925.16 509.69 925.16 507.31L925.16 507.31Q925.16 503.09 928.59 500.66Q932.03 498.22 938.03 498.22L938.03 498.22Q943.88 498.22 948.97 500.53L948.97 500.53L947.06 505Q941.84 502.81 937.66 502.81L937.66 502.81Q934.16 502.81 932.34 503.92Q930.53 505.03 930.53 506.97L930.53 506.97Q930.53 508.84 932.09 510.08Q933.66 511.31 939.38 513.50L939.38 513.50Q943.66 515.09 945.70 516.47Q947.75 517.84 948.72 519.56Q949.69 521.28 949.69 523.69Z" fill="#333333"/></svg><svg>
<defs><filter id="unit_0_0_1_2_14-blur">
                        <feGaussianBlur result="blurOut" in="offOut" stdDeviation="10" />
                   </filter></defs>
<path d="M953.97 548.53L953.97 548.53Q951.03 548.53 949.03 547.75L949.03 547.75L949.03 543.22Q951.19 543.84 953.28 543.84L953.28 543.84Q955.72 543.84 956.86 542.52Q958 541.19 958 538.47L958 538.47L958 498.84L963.63 498.84L963.63 538.28Q963.63 543.41 961.17 545.97Q958.72 548.53 953.97 548.53ZM957.56 489.56L957.56 489.56Q957.56 487.69 958.52 486.84Q959.47 486 960.88 486L960.88 486Q962.19 486 963.17 486.84Q964.16 487.69 964.16 489.56L964.16 489.56Q964.16 491.41 963.17 492.28Q962.19 493.16 960.88 493.16L960.88 493.16Q959.47 493.16 958.52 492.28Q957.56 491.41 957.56 489.56Z" fill="#66CC33" filter="unit_0_0_1_2_14-blur" /><path d="M953.97 548.53L953.97 548.53Q951.03 548.53 949.03 547.75L949.03 547.75L949.03 543.22Q951.19 543.84 953.28 543.84L953.28 543.84Q955.72 543.84 956.86 542.52Q958 541.19 958 538.47L958 538.47L958 498.84L963.63 498.84L963.63 538.28Q963.63 543.41 961.17 545.97Q958.72 548.53 953.97 548.53ZM957.56 489.56L957.56 489.56Q957.56 487.69 958.52 486.84Q959.47 486 960.88 486L960.88 486Q962.19 486 963.17 486.84Q964.16 487.69 964.16 489.56L964.16 489.56Q964.16 491.41 963.17 492.28Q962.19 493.16 960.88 493.16L960.88 493.16Q959.47 493.16 958.52 492.28Q957.56 491.41 957.56 489.56Z" fill="#333333"/></svg><svg>
<defs><filter id="unit_0_0_1_2_15-blur">
                        <feGaussianBlur result="blurOut" in="offOut" stdDeviation="10" />
                   </filter></defs>
<path d="M990.31 498.84L990.31 503.22L981.66 503.22L981.66 533.16L976.03 533.16L976.03 503.22L970.03 503.22L970.03 500.59L976.03 498.66L976.03 496.69Q976.03 490.44 978.77 487.31Q981.50 484.19 987.19 484.19L987.19 484.19Q990.47 484.19 993.84 485.34L993.84 485.34L992.34 489.75Q989.44 488.81 987.25 488.81L987.25 488.81Q984.41 488.81 983.03 490.69Q981.66 492.56 981.66 496.63L981.66 496.63L981.66 498.84L990.31 498.84Z" fill="#66CC33" filter="unit_0_0_1_2_15-blur" /><path d="M990.31 498.84L990.31 503.22L981.66 503.22L981.66 533.16L976.03 533.16L976.03 503.22L970.03 503.22L970.03 500.59L976.03 498.66L976.03 496.69Q976.03 490.44 978.77 487.31Q981.50 484.19 987.19 484.19L987.19 484.19Q990.47 484.19 993.84 485.34L993.84 485.34L992.34 489.75Q989.44 488.81 987.25 488.81L987.25 488.81Q984.41 488.81 983.03 490.69Q981.66 492.56 981.66 496.63L981.66 496.63L981.66 498.84L990.31 498.84Z" fill="#333333"/></svg><svg>
<defs><filter id="unit_0_0_1_2_16-blur">
                        <feGaussianBlur result="blurOut" in="offOut" stdDeviation="10" />
                   </filter></defs>
<path d="M1021.81 533.16L1017.72 533.16L1016.63 528.28L1016.38 528.28Q1013.81 531.50 1011.27 532.64Q1008.72 533.78 1004.84 533.78L1004.84 533.78Q999.78 533.78 996.91 531.13Q994.03 528.47 994.03 523.63L994.03 523.63Q994.03 513.19 1010.50 512.69L1010.50 512.69L1016.31 512.47L1016.31 510.44Q1016.31 506.53 1014.63 504.67Q1012.94 502.81 1009.22 502.81L1009.22 502.81Q1006.50 502.81 1004.08 503.63Q1001.66 504.44 999.53 505.44L999.53 505.44L997.81 501.22Q1000.41 499.84 1003.47 499.06Q1006.53 498.28 1009.53 498.28L1009.53 498.28Q1015.75 498.28 1018.78 501.03Q1021.81 503.78 1021.81 509.78L1021.81 509.78L1021.81 533.16ZM1006.13 529.25L1006.13 529.25Q1010.84 529.25 1013.55 526.70Q1016.25 524.16 1016.25 519.47L1016.25 519.47L1016.25 516.38L1011.19 516.59Q1005.28 516.81 1002.58 518.47Q999.88 520.13 999.88 523.69L999.88 523.69Q999.88 526.38 1001.52 527.81Q1003.16 529.25 1006.13 529.25Z" fill="#66CC33" filter="unit_0_0_1_2_16-blur" /><path d="M1021.81 533.16L1017.72 533.16L1016.63 528.28L1016.38 528.28Q1013.81 531.50 1011.27 532.64Q1008.72 533.78 1004.84 533.78L1004.84 533.78Q999.78 533.78 996.91 531.13Q994.03 528.47 994.03 523.63L994.03 523.63Q994.03 513.19 1010.50 512.69L1010.50 512.69L1016.31 512.47L1016.31 510.44Q1016.31 506.53 1014.63 504.67Q1012.94 502.81 1009.22 502.81L1009.22 502.81Q1006.50 502.81 1004.08 503.63Q1001.66 504.44 999.53 505.44L999.53 505.44L997.81 501.22Q1000.41 499.84 1003.47 499.06Q1006.53 498.28 1009.53 498.28L1009.53 498.28Q1015.75 498.28 1018.78 501.03Q1021.81 503.78 1021.81 509.78L1021.81 509.78L1021.81 533.16ZM1006.13 529.25L1006.13 529.25Q1010.84 529.25 1013.55 526.70Q1016.25 524.16 1016.25 519.47L1016.25 519.47L1016.25 516.38L1011.19 516.59Q1005.28 516.81 1002.58 518.47Q999.88 520.13 999.88 523.69L999.88 523.69Q999.88 526.38 1001.52 527.81Q1003.16 529.25 1006.13 529.25Z" fill="#333333"/></svg><svg>
<defs><filter id="unit_0_0_1_2_17-blur">
                        <feGaussianBlur result="blurOut" in="offOut" stdDeviation="10" />
                   </filter></defs>
<path d="M1038.06 484.53L1038.06 533.16L1032.44 533.16L1032.44 484.53L1038.06 484.53Z" fill="#66CC33" filter="unit_0_0_1_2_17-blur" /><path d="M1038.06 484.53L1038.06 533.16L1032.44 533.16L1032.44 484.53L1038.06 484.53Z" fill="#333333"/></svg><svg>
<defs><filter id="unit_0_0_1_2_18-blur">
                        <feGaussianBlur result="blurOut" in="offOut" stdDeviation="10" />
                   </filter></defs>
<path d="M1077.88 533.16L1072.31 533.16L1072.31 511.22Q1072.31 507.03 1070.45 504.98Q1068.59 502.94 1064.63 502.94L1064.63 502.94Q1059.41 502.94 1056.98 505.84Q1054.56 508.75 1054.56 515.44L1054.56 515.44L1054.56 533.16L1048.94 533.16L1048.94 484.53L1054.56 484.53L1054.56 498.78Q1054.56 501.59 1054.25 503.59L1054.25 503.59L1054.63 503.59Q1056.16 501.09 1058.97 499.69Q1061.78 498.28 1065.31 498.28L1065.31 498.28Q1071.56 498.28 1074.72 501.27Q1077.88 504.25 1077.88 510.81L1077.88 510.81L1077.88 533.16Z" fill="#66CC33" filter="unit_0_0_1_2_18-blur" /><path d="M1077.88 533.16L1072.31 533.16L1072.31 511.22Q1072.31 507.03 1070.45 504.98Q1068.59 502.94 1064.63 502.94L1064.63 502.94Q1059.41 502.94 1056.98 505.84Q1054.56 508.75 1054.56 515.44L1054.56 515.44L1054.56 533.16L1048.94 533.16L1048.94 484.53L1054.56 484.53L1054.56 498.78Q1054.56 501.59 1054.25 503.59L1054.25 503.59L1054.63 503.59Q1056.16 501.09 1058.97 499.69Q1061.78 498.28 1065.31 498.28L1065.31 498.28Q1071.56 498.28 1074.72 501.27Q1077.88 504.25 1077.88 510.81L1077.88 510.81L1077.88 533.16Z" fill="#333333"/></svg><svg>
<defs><filter id="unit_0_0_1_2_19-blur">
                        <feGaussianBlur result="blurOut" in="offOut" stdDeviation="10" />
                   </filter></defs>
<path d="M1113.78 533.16L1109.69 533.16L1108.59 528.28L1108.34 528.28Q1105.78 531.50 1103.23 532.64Q1100.69 533.78 1096.81 533.78L1096.81 533.78Q1091.75 533.78 1088.88 531.13Q1086 528.47 1086 523.63L1086 523.63Q1086 513.19 1102.47 512.69L1102.47 512.69L1108.28 512.47L1108.28 510.44Q1108.28 506.53 1106.59 504.67Q1104.91 502.81 1101.19 502.81L1101.19 502.81Q1098.47 502.81 1096.05 503.63Q1093.63 504.44 1091.50 505.44L1091.50 505.44L1089.78 501.22Q1092.38 499.84 1095.44 499.06Q1098.50 498.28 1101.50 498.28L1101.50 498.28Q1107.72 498.28 1110.75 501.03Q1113.78 503.78 1113.78 509.78L1113.78 509.78L1113.78 533.16ZM1098.09 529.25L1098.09 529.25Q1102.81 529.25 1105.52 526.70Q1108.22 524.16 1108.22 519.47L1108.22 519.47L1108.22 516.38L1103.16 516.59Q1097.25 516.81 1094.55 518.47Q1091.84 520.13 1091.84 523.69L1091.84 523.69Q1091.84 526.38 1093.48 527.81Q1095.13 529.25 1098.09 529.25Z" fill="#66CC33" filter="unit_0_0_1_2_19-blur" /><path d="M1113.78 533.16L1109.69 533.16L1108.59 528.28L1108.34 528.28Q1105.78 531.50 1103.23 532.64Q1100.69 533.78 1096.81 533.78L1096.81 533.78Q1091.75 533.78 1088.88 531.13Q1086 528.47 1086 523.63L1086 523.63Q1086 513.19 1102.47 512.69L1102.47 512.69L1108.28 512.47L1108.28 510.44Q1108.28 506.53 1106.59 504.67Q1104.91 502.81 1101.19 502.81L1101.19 502.81Q1098.47 502.81 1096.05 503.63Q1093.63 504.44 1091.50 505.44L1091.50 505.44L1089.78 501.22Q1092.38 499.84 1095.44 499.06Q1098.50 498.28 1101.50 498.28L1101.50 498.28Q1107.72 498.28 1110.75 501.03Q1113.78 503.78 1113.78 509.78L1113.78 509.78L1113.78 533.16ZM1098.09 529.25L1098.09 529.25Q1102.81 529.25 1105.52 526.70Q1108.22 524.16 1108.22 519.47L1108.22 519.47L1108.22 516.38L1103.16 516.59Q1097.25 516.81 1094.55 518.47Q1091.84 520.13 1091.84 523.69L1091.84 523.69Q1091.84 526.38 1093.48 527.81Q1095.13 529.25 1098.09 529.25Z" fill="#333333"/></svg><svg>
<defs><filter id="unit_0_0_1_2_20-blur">
                        <feGaussianBlur result="blurOut" in="offOut" stdDeviation="10" />
                   </filter></defs>
<path d="M1130.03 484.53L1130.03 533.16L1124.41 533.16L1124.41 484.53L1130.03 484.53Z" fill="#66CC33" filter="unit_0_0_1_2_20-blur" /><path d="M1130.03 484.53L1130.03 533.16L1124.41 533.16L1124.41 484.53L1130.03 484.53Z" fill="#333333"/></svg><svg>
<defs><filter id="unit_0_0_1_2_21-blur">
                        <feGaussianBlur result="blurOut" in="offOut" stdDeviation="10" />
                   </filter></defs>
<path d="M1169.84 533.16L1164.28 533.16L1164.28 511.22Q1164.28 507.03 1162.42 504.98Q1160.56 502.94 1156.59 502.94L1156.59 502.94Q1151.38 502.94 1148.95 505.84Q1146.53 508.75 1146.53 515.44L1146.53 515.44L1146.53 533.16L1140.91 533.16L1140.91 484.53L1146.53 484.53L1146.53 498.78Q1146.53 501.59 1146.22 503.59L1146.22 503.59L1146.59 503.59Q1148.13 501.09 1150.94 499.69Q1153.75 498.28 1157.28 498.28L1157.28 498.28Q1163.53 498.28 1166.69 501.27Q1169.84 504.25 1169.84 510.81L1169.84 510.81L1169.84 533.16Z" fill="#66CC33" filter="unit_0_0_1_2_21-blur" /><path d="M1169.84 533.16L1164.28 533.16L1164.28 511.22Q1164.28 507.03 1162.42 504.98Q1160.56 502.94 1156.59 502.94L1156.59 502.94Q1151.38 502.94 1148.95 505.84Q1146.53 508.75 1146.53 515.44L1146.53 515.44L1146.53 533.16L1140.91 533.16L1140.91 484.53L1146.53 484.53L1146.53 498.78Q1146.53 501.59 1146.22 503.59L1146.22 503.59L1146.59 503.59Q1148.13 501.09 1150.94 499.69Q1153.75 498.28 1157.28 498.28L1157.28 498.28Q1163.53 498.28 1166.69 501.27Q1169.84 504.25 1169.84 510.81L1169.84 510.81L1169.84 533.16Z" fill="#333333"/></svg><svg>
<defs><filter id="unit_0_0_1_2_22-blur">
                        <feGaussianBlur result="blurOut" in="offOut" stdDeviation="10" />
                   </filter></defs>
<path d="M1193.53 529.19L1193.53 529.19Q1198.72 529.19 1201.08 526.39Q1203.44 523.59 1203.44 517.41L1203.44 517.41L1203.44 516.06Q1203.44 509.19 1201.06 506.06Q1198.69 502.94 1193.41 502.94L1193.41 502.94Q1189.09 502.94 1186.73 506.36Q1184.38 509.78 1184.38 516.13L1184.38 516.13Q1184.38 522.50 1186.67 525.84Q1188.97 529.19 1193.53 529.19ZM1203.38 534.19L1203.38 532.84L1203.56 528.63L1203.31 528.63Q1199.84 533.78 1192.69 533.78L1192.69 533.78Q1186.03 533.78 1182.30 529.14Q1178.56 524.50 1178.56 516.06L1178.56 516.06Q1178.56 507.78 1182.33 503Q1186.09 498.22 1192.63 498.22L1192.63 498.22Q1199.59 498.22 1203.38 503.41L1203.38 503.41L1203.72 503.41L1204.47 498.84L1208.94 498.84L1208.94 533.72Q1208.94 541.09 1205.20 544.81Q1201.47 548.53 1193.59 548.53L1193.59 548.53Q1186.09 548.53 1181.25 546.34L1181.25 546.34L1181.25 541.16Q1186.25 543.84 1193.91 543.84L1193.91 543.84Q1198.28 543.84 1200.83 541.28Q1203.38 538.72 1203.38 534.19L1203.38 534.19Z" fill="#66CC33" filter="unit_0_0_1_2_22-blur" /><path d="M1193.53 529.19L1193.53 529.19Q1198.72 529.19 1201.08 526.39Q1203.44 523.59 1203.44 517.41L1203.44 517.41L1203.44 516.06Q1203.44 509.19 1201.06 506.06Q1198.69 502.94 1193.41 502.94L1193.41 502.94Q1189.09 502.94 1186.73 506.36Q1184.38 509.78 1184.38 516.13L1184.38 516.13Q1184.38 522.50 1186.67 525.84Q1188.97 529.19 1193.53 529.19ZM1203.38 534.19L1203.38 532.84L1203.56 528.63L1203.31 528.63Q1199.84 533.78 1192.69 533.78L1192.69 533.78Q1186.03 533.78 1182.30 529.14Q1178.56 524.50 1178.56 516.06L1178.56 516.06Q1178.56 507.78 1182.33 503Q1186.09 498.22 1192.63 498.22L1192.63 498.22Q1199.59 498.22 1203.38 503.41L1203.38 503.41L1203.72 503.41L1204.47 498.84L1208.94 498.84L1208.94 533.72Q1208.94 541.09 1205.20 544.81Q1201.47 548.53 1193.59 548.53L1193.59 548.53Q1186.09 548.53 1181.25 546.34L1181.25 546.34L1181.25 541.16Q1186.25 543.84 1193.91 543.84L1193.91 543.84Q1198.28 543.84 1200.83 541.28Q1203.38 538.72 1203.38 534.19L1203.38 534.19Z" fill="#333333"/></svg><path d="M 556.09375 463.75 L 1213.40625 463.75 L 1213.40625 532.15625 L 556.09375 532.15625 L 556.09375 463.75" stroke="#999999" /></g></svg><svg>
<g id="unit_0_0_1_3"><svg>
<defs><filter id="unit_0_0_1_3_0-blur">
                        <feGaussianBlur result="blurOut" in="offOut" stdDeviation="10" />
                   </filter></defs>
<path d="" fill="#66CC33" filter="unit_0_0_1_3_0-blur" /><path d="" fill="#333333"/></svg><path d="M 1213.40625 463.75 L 1230.03125 463.75 L 1230.03125 532.15625 L 1213.40625 532.15625 L 1213.40625 463.75" stroke="#999999" /></g></svg><path d="M 410 463.75 L 1230.03125 463.75 L 1230.03125 532.15625 L 410 532.15625 L 410 463.75" stroke="#999999" fill-opacity="0.0"/></g></svg><svg>
<g id="unit_0_0_2"><svg>
<g id="unit_0_0_2_0"><svg>
<defs><filter id="unit_0_0_2_0_0-blur">
                        <feGaussianBlur result="blurOut" in="offOut" stdDeviation="10" />
                   </filter></defs>
<path d="M451.06 586.91L444.47 586.91L438.59 567.59Q437.78 565.19 436.22 558.50L436.22 558.50L435.97 558.50Q434.66 564.59 433.66 567.66L433.66 567.66L427.50 586.91L421.13 586.91L411.72 552.59L417.53 552.59Q420.78 565.25 422.48 571.84Q424.19 578.44 424.50 581.16L424.50 581.16L424.75 581.16L425.19 579.22Q426.16 574.75 427.06 571.94L427.06 571.94L433.16 552.59L439.28 552.59L445.19 571.94Q445.50 573.03 445.86 574.27Q446.22 575.50 446.53 576.70Q446.84 577.91 447.09 579.05Q447.34 580.19 447.47 581.09L447.47 581.09L447.75 581.09Q448.03 578.72 450.03 570.91L450.03 570.91L454.84 552.59L460.59 552.59L451.06 586.91Z" fill="#66CC33" filter="unit_0_0_2_0_0-blur" /><path d="M451.06 586.91L444.47 586.91L438.59 567.59Q437.78 565.19 436.22 558.50L436.22 558.50L435.97 558.50Q434.66 564.59 433.66 567.66L433.66 567.66L427.50 586.91L421.13 586.91L411.72 552.59L417.53 552.59Q420.78 565.25 422.48 571.84Q424.19 578.44 424.50 581.16L424.50 581.16L424.75 581.16L425.19 579.22Q426.16 574.75 427.06 571.94L427.06 571.94L433.16 552.59L439.28 552.59L445.19 571.94Q445.50 573.03 445.86 574.27Q446.22 575.50 446.53 576.70Q446.84 577.91 447.09 579.05Q447.34 580.19 447.47 581.09L447.47 581.09L447.75 581.09Q448.03 578.72 450.03 570.91L450.03 570.91L454.84 552.59L460.59 552.59L451.06 586.91Z" fill="#333333"/></svg><svg>
<defs><filter id="unit_0_0_2_0_1-blur">
                        <feGaussianBlur result="blurOut" in="offOut" stdDeviation="10" />
                   </filter></defs>
<path d="M496.56 569.69L496.56 569.69Q496.56 578.09 492.31 582.81Q488.06 587.53 480.56 587.53L480.56 587.53Q475.91 587.53 472.31 585.36Q468.72 583.19 466.78 579.13Q464.84 575.06 464.84 569.69L464.84 569.69Q464.84 561.31 469.03 556.64Q473.22 551.97 480.78 551.97L480.78 551.97Q488.03 551.97 492.30 556.73Q496.56 561.50 496.56 569.69ZM470.66 569.69L470.66 569.69Q470.66 576.16 473.20 579.52Q475.75 582.88 480.72 582.88L480.72 582.88Q485.63 582.88 488.19 579.52Q490.75 576.16 490.75 569.69L490.75 569.69Q490.75 563.22 488.17 559.95Q485.59 556.69 480.63 556.69L480.63 556.69Q470.66 556.69 470.66 569.69Z" fill="#66CC33" filter="unit_0_0_2_0_1-blur" /><path d="M496.56 569.69L496.56 569.69Q496.56 578.09 492.31 582.81Q488.06 587.53 480.56 587.53L480.56 587.53Q475.91 587.53 472.31 585.36Q468.72 583.19 466.78 579.13Q464.84 575.06 464.84 569.69L464.84 569.69Q464.84 561.31 469.03 556.64Q473.22 551.97 480.78 551.97L480.78 551.97Q488.03 551.97 492.30 556.73Q496.56 561.50 496.56 569.69ZM470.66 569.69L470.66 569.69Q470.66 576.16 473.20 579.52Q475.75 582.88 480.72 582.88L480.72 582.88Q485.63 582.88 488.19 579.52Q490.75 576.16 490.75 569.69L490.75 569.69Q490.75 563.22 488.17 559.95Q485.59 556.69 480.63 556.69L480.63 556.69Q470.66 556.69 470.66 569.69Z" fill="#333333"/></svg><svg>
<defs><filter id="unit_0_0_2_0_2-blur">
                        <feGaussianBlur result="blurOut" in="offOut" stdDeviation="10" />
                   </filter></defs>
<path d="M521.47 551.97L521.47 551.97Q523.75 551.97 525.50 552.34L525.50 552.34L524.81 557.53Q522.91 557.09 521.09 557.09L521.09 557.09Q518.38 557.09 516.05 558.59Q513.72 560.09 512.41 562.73Q511.09 565.38 511.09 568.59L511.09 568.59L511.09 586.91L505.47 586.91L505.47 552.59L510.09 552.59L510.72 558.88L510.97 558.88Q512.94 555.47 515.63 553.72Q518.31 551.97 521.47 551.97Z" fill="#66CC33" filter="unit_0_0_2_0_2-blur" /><path d="M521.47 551.97L521.47 551.97Q523.75 551.97 525.50 552.34L525.50 552.34L524.81 557.53Q522.91 557.09 521.09 557.09L521.09 557.09Q518.38 557.09 516.05 558.59Q513.72 560.09 512.41 562.73Q511.09 565.38 511.09 568.59L511.09 568.59L511.09 586.91L505.47 586.91L505.47 552.59L510.09 552.59L510.72 558.88L510.97 558.88Q512.94 555.47 515.63 553.72Q518.31 551.97 521.47 551.97Z" fill="#333333"/></svg><svg>
<defs><filter id="unit_0_0_2_0_3-blur">
                        <feGaussianBlur result="blurOut" in="offOut" stdDeviation="10" />
                   </filter></defs>
<path d="M544.06 587.53L544.06 587.53Q537.38 587.53 533.69 582.91Q530 578.28 530 569.81L530 569.81Q530 561.41 533.70 556.69Q537.41 551.97 544.13 551.97L544.13 551.97Q551.03 551.97 554.75 557.03L554.75 557.03L555.16 557.03Q555.06 556.41 554.91 554.52Q554.75 552.63 554.75 551.97L554.75 551.97L554.75 538.28L560.38 538.28L560.38 586.91L555.84 586.91L555 582.31L554.75 582.31Q551.16 587.53 544.06 587.53ZM544.97 582.88L544.97 582.88Q550.09 582.88 552.45 580.08Q554.81 577.28 554.81 570.91L554.81 570.91L554.81 569.88Q554.81 562.72 552.42 559.67Q550.03 556.63 544.91 556.63L544.91 556.63Q540.56 556.63 538.19 560.08Q535.81 563.53 535.81 569.94L535.81 569.94Q535.81 576.31 538.17 579.59Q540.53 582.88 544.97 582.88Z" fill="#66CC33" filter="unit_0_0_2_0_3-blur" /><path d="M544.06 587.53L544.06 587.53Q537.38 587.53 533.69 582.91Q530 578.28 530 569.81L530 569.81Q530 561.41 533.70 556.69Q537.41 551.97 544.13 551.97L544.13 551.97Q551.03 551.97 554.75 557.03L554.75 557.03L555.16 557.03Q555.06 556.41 554.91 554.52Q554.75 552.63 554.75 551.97L554.75 551.97L554.75 538.28L560.38 538.28L560.38 586.91L555.84 586.91L555 582.31L554.75 582.31Q551.16 587.53 544.06 587.53ZM544.97 582.88L544.97 582.88Q550.09 582.88 552.45 580.08Q554.81 577.28 554.81 570.91L554.81 570.91L554.81 569.88Q554.81 562.72 552.42 559.67Q550.03 556.63 544.91 556.63L544.91 556.63Q540.56 556.63 538.19 560.08Q535.81 563.53 535.81 569.94L535.81 569.94Q535.81 576.31 538.17 579.59Q540.53 582.88 544.97 582.88Z" fill="#333333"/></svg><svg>
<defs><filter id="unit_0_0_2_0_4-blur">
                        <feGaussianBlur result="blurOut" in="offOut" stdDeviation="10" />
                   </filter></defs>
<path d="M593.63 577.44L593.63 577.44Q593.63 582.25 590.03 584.89Q586.44 587.53 579.94 587.53L579.94 587.53Q573.16 587.53 569.16 585.38L569.16 585.38L569.16 580.25Q574.81 583 580.06 583L580.06 583Q584.31 583 586.25 581.63Q588.19 580.25 588.19 577.94L588.19 577.94Q588.19 575.91 586.33 574.50Q584.47 573.09 579.72 571.28L579.72 571.28Q574.88 569.41 572.91 568.08Q570.94 566.75 570.02 565.09Q569.09 563.44 569.09 561.06L569.09 561.06Q569.09 556.84 572.53 554.41Q575.97 551.97 581.97 551.97L581.97 551.97Q587.81 551.97 592.91 554.28L592.91 554.28L591 558.75Q585.78 556.56 581.59 556.56L581.59 556.56Q578.09 556.56 576.28 557.67Q574.47 558.78 574.47 560.72L574.47 560.72Q574.47 562.59 576.03 563.83Q577.59 565.06 583.31 567.25L583.31 567.25Q587.59 568.84 589.64 570.22Q591.69 571.59 592.66 573.31Q593.63 575.03 593.63 577.44Z" fill="#66CC33" filter="unit_0_0_2_0_4-blur" /><path d="M593.63 577.44L593.63 577.44Q593.63 582.25 590.03 584.89Q586.44 587.53 579.94 587.53L579.94 587.53Q573.16 587.53 569.16 585.38L569.16 585.38L569.16 580.25Q574.81 583 580.06 583L580.06 583Q584.31 583 586.25 581.63Q588.19 580.25 588.19 577.94L588.19 577.94Q588.19 575.91 586.33 574.50Q584.47 573.09 579.72 571.28L579.72 571.28Q574.88 569.41 572.91 568.08Q570.94 566.75 570.02 565.09Q569.09 563.44 569.09 561.06L569.09 561.06Q569.09 556.84 572.53 554.41Q575.97 551.97 581.97 551.97L581.97 551.97Q587.81 551.97 592.91 554.28L592.91 554.28L591 558.75Q585.78 556.56 581.59 556.56L581.59 556.56Q578.09 556.56 576.28 557.67Q574.47 558.78 574.47 560.72L574.47 560.72Q574.47 562.59 576.03 563.83Q577.59 565.06 583.31 567.25L583.31 567.25Q587.59 568.84 589.64 570.22Q591.69 571.59 592.66 573.31Q593.63 575.03 593.63 577.44Z" fill="#333333"/></svg><path d="M 410 517.5 L 595.5 517.5 L 595.5 585.90625 L 410 585.90625 L 410 517.5" stroke="#999999" /></g></svg><path d="M 410 517.5 L 595.5 517.5 L 595.5 585.90625 L 410 585.90625 L 410 517.5" stroke="#999999" fill-opacity="0.0"/></g></svg><path d="M 400 400 L 1000 400 L 1000 1000 L 400 1000 L 400 400" stroke="#999999" fill-opacity="0.0"/></g></svg></svg>
